<svg width="181" height="80" viewBox="0 0 181 80" fill="none" xmlns="http://www.w3.org/2000/svg">
<g filter="url(#filter0_d_19_5)">
<path d="M43.1616 18.0692C42.9371 15.8062 41.974 14.0482 40.272 12.7951C38.5701 11.542 36.2603 10.9155 33.3427 10.9155C31.3602 10.9155 29.6863 11.196 28.321 11.7571C26.9557 12.2995 25.9084 13.0569 25.179 14.0295C24.4683 15.002 24.1129 16.1055 24.1129 17.3398C24.0755 18.3685 24.2906 19.2662 24.7582 20.033C25.2444 20.7998 25.9084 21.4638 26.75 22.0249C27.5916 22.5672 28.5642 23.0442 29.6676 23.4556C30.7711 23.8484 31.9493 24.185 33.2024 24.4656L38.3643 25.6999C40.8705 26.261 43.1709 27.0091 45.2656 27.9442C47.3603 28.8794 49.1745 30.0296 50.7081 31.3949C52.2417 32.7602 53.4293 34.3686 54.271 36.2202C55.1313 38.0717 55.5708 40.1945 55.5895 42.5884C55.5708 46.1045 54.6731 49.1531 52.8963 51.734C51.1383 54.2963 48.5947 56.2881 45.2656 57.7095C41.9553 59.1122 37.9622 59.8136 33.2866 59.8136C28.6483 59.8136 24.6085 59.1029 21.1673 57.6815C17.7447 56.2601 15.0702 54.156 13.1438 51.3693C11.2362 48.5639 10.2356 45.0946 10.142 40.9613H21.8967C22.0276 42.8877 22.5793 44.4961 23.5518 45.7866C24.5431 47.0584 25.8616 48.0215 27.5075 48.6761C29.172 49.312 31.0516 49.63 33.1463 49.63C35.2036 49.63 36.9897 49.3307 38.5046 48.7322C40.0382 48.1338 41.2259 47.3015 42.0675 46.2354C42.9091 45.1694 43.3299 43.9444 43.3299 42.5604C43.3299 41.2699 42.9465 40.1851 42.1797 39.3061C41.4316 38.4271 40.3281 37.679 38.8693 37.0618C37.4292 36.4446 35.6618 35.8835 33.5671 35.3786L27.3111 33.8075C22.4671 32.6293 18.6424 30.787 15.837 28.2809C13.0316 25.7747 11.6383 22.3989 11.657 18.1534C11.6383 14.6747 12.564 11.6355 14.4343 9.03587C16.3233 6.4362 18.9136 4.40696 22.2053 2.94815C25.4969 1.48934 29.2375 0.759941 33.4268 0.759941C37.6911 0.759941 41.4129 1.48934 44.5923 2.94815C47.7905 4.40696 50.2779 6.4362 52.0547 9.03587C53.8314 11.6355 54.7479 14.6467 54.804 18.0692H43.1616ZM74.1402 1.54545L88.0269 45.1974H88.5599L102.475 1.54545H115.941L96.1345 59H80.4804L60.6462 1.54545H74.1402ZM157.713 20.1172C157.32 18.7519 156.768 17.5456 156.058 16.4982C155.347 15.4322 154.477 14.5344 153.449 13.805C152.439 13.0569 151.279 12.4865 149.97 12.0938C148.68 11.701 147.249 11.5046 145.678 11.5046C142.742 11.5046 140.161 12.234 137.935 13.6928C135.728 15.1516 134.007 17.2744 132.773 20.0611C131.539 22.8291 130.921 26.2143 130.921 30.2166C130.921 34.219 131.529 37.6229 132.745 40.4283C133.961 43.2337 135.681 45.3751 137.907 46.8526C140.132 48.3114 142.76 49.0408 145.79 49.0408C148.539 49.0408 150.887 48.5546 152.832 47.582C154.795 46.5908 156.292 45.1974 157.32 43.402C158.368 41.6065 158.891 39.4838 158.891 37.0337L161.36 37.3984H146.547V28.2528H170.59V35.4908C170.59 40.5405 169.524 44.8795 167.392 48.5078C165.26 52.1174 162.323 54.9041 158.583 56.8679C154.842 58.813 150.559 59.7855 145.734 59.7855C140.348 59.7855 135.616 58.5979 131.539 56.2227C127.461 53.8287 124.282 50.4342 122 46.0391C119.737 41.6252 118.606 36.3885 118.606 30.3288C118.606 25.6719 119.279 21.5199 120.626 17.8729C121.991 14.2071 123.899 11.1025 126.349 8.55895C128.799 6.01539 131.651 4.07966 134.905 2.75177C138.159 1.42389 141.685 0.759941 145.481 0.759941C148.736 0.759941 151.766 1.23686 154.571 2.1907C157.376 3.12583 159.864 4.45372 162.033 6.17436C164.222 7.895 166.008 9.94294 167.392 12.3182C168.776 14.6747 169.664 17.2744 170.057 20.1172H157.713Z" fill="black"/>
</g>
<defs>
<filter id="filter0_d_19_5" x="0.14209" y="0.759949" width="180.448" height="79.0536" filterUnits="userSpaceOnUse" color-interpolation-filters="sRGB">
<feFlood flood-opacity="0" result="BackgroundImageFix"/>
<feColorMatrix in="SourceAlpha" type="matrix" values="0 0 0 0 0 0 0 0 0 0 0 0 0 0 0 0 0 0 127 0" result="hardAlpha"/>
<feOffset dy="10"/>
<feGaussianBlur stdDeviation="5"/>
<feComposite in2="hardAlpha" operator="out"/>
<feColorMatrix type="matrix" values="0 0 0 0 0 0 0 0 0 0 0 0 0 0 0 0 0 0 0.25 0"/>
<feBlend mode="normal" in2="BackgroundImageFix" result="effect1_dropShadow_19_5"/>
<feBlend mode="normal" in="SourceGraphic" in2="effect1_dropShadow_19_5" result="shape"/>
</filter>
</defs>
</svg>
